<?xml version="1.0" standalone="no"?>
<!DOCTYPE svg PUBLIC "-//W3C//DTD SVG 1.1//EN" "http://www.w3.org/Graphics/SVG/1.1/DTD/svg11.dtd" >
<svg xmlns="http://www.w3.org/2000/svg">
<metadata>
This is a custom SVG webfont generated by Font Squirrel.
Copyright   : Superfunkcom for more free fonts
</metadata>
<defs>
<font id="FontNormal" horiz-adv-x="1341" >
<font-face units-per-em="2048" ascent="1638" descent="-410" />
<missing-glyph horiz-adv-x="1024" />
<glyph unicode=" "  horiz-adv-x="1024" />
<glyph unicode="&#x09;" horiz-adv-x="1024" />
<glyph unicode="&#xa0;" horiz-adv-x="1024" />
<glyph unicode="!" horiz-adv-x="604" d="M39 1872h516l-90 -1317h-338zM63 -10v481h480v-481h-480z" />
<glyph unicode="$" horiz-adv-x="1179" d="M39 377v295h410v-121h38v194h-227l-221 224v495l227 230h201v178h213v-178h221l229 -232v-284h-440v129h-31v-183h240l231 -233v-512l-231 -234h-219v-155h-213v155h-199zM401 1124h33v183h-33v-183zM705 551h30v197h-30v-197z" />
<glyph unicode="%" horiz-adv-x="1990" d="M43 1249v459l158 160h456l162 -164v-455l-153 -155h-469zM160 -14l1161 1882h485l-1165 -1882h-481zM344 1374h176v201h-176v-201zM1157 145v459l154 156h458l154 -156v-459l-151 -155h-461zM1458 270h178v201h-178v-201z" />
<glyph unicode="&#x26;" horiz-adv-x="1990" d="M39 268v502l278 188l-198 195v455l270 264h744l272 -273v-516l-313 -227l43 -43l49 -47l33 -33l165 113l357 -359l-176 -118l383 -379h-705l-117 114l-168 -114h-632zM524 420l316 -12l-183 213l-133 -80v-121zM631 1327l108 -106l154 98v90h-262v-82z" />
<glyph unicode="'" horiz-adv-x="491" d="M39 1309v551h407v-359l-190 -192h-217z" />
<glyph unicode="(" horiz-adv-x="737" d="M102 225v1411l234 236h354v-420h-149v-1049h149v-413h-354z" />
<glyph unicode=")" horiz-adv-x="663" d="M39 -10v413h149v1049h-149v420h354l234 -236v-1411l-234 -235h-354z" />
<glyph unicode="*" horiz-adv-x="724" d="M31 1628l106 172l115 -63v135h217v-125l115 61l104 -186l-108 -59l112 -68l-102 -174l-127 65v-133h-201v121l-110 -59l-117 176l129 74z" />
<glyph unicode="+" horiz-adv-x="2109" d="M39 1053v374h375v-374h-375z" />
<glyph unicode="," horiz-adv-x="491" d="M39 -213v551h407v-358l-190 -193h-217z" />
<glyph unicode="-" horiz-adv-x="1046" d="M37 666v536h938v-536h-938z" />
<glyph unicode="." horiz-adv-x="479" d="M27 -10v428h387v-428h-387z" />
<glyph unicode="/" horiz-adv-x="1708" d="M2 -10l1163 1882h486l-1166 -1882h-483z" />
<glyph unicode="0" horiz-adv-x="1366" d="M63 248v1364l240 260h715l264 -258v-1366l-264 -258h-717zM514 449h317v966h-317v-966z" />
<glyph unicode="1" horiz-adv-x="770" d="M39 1374v498h661v-1882h-503v1384h-158z" />
<glyph unicode="2" horiz-adv-x="1376" d="M39 -10v416l774 778v235h-319v-372h-455v561l264 264h744l231 -232v-718l-436 -441h444v-491h-1247z" />
<glyph unicode="3" horiz-adv-x="1327" d="M39 250v391h487v-168h269v254h-299v479h299v215h-269v-164h-487v361l252 254h731l266 -268v-492l-125 -125l125 -127v-586l-282 -284h-709z" />
<glyph unicode="4" horiz-adv-x="1523" d="M39 324v471l596 1077h641v-1026h166v-522h-166v-334h-512v334h-725zM625 821h139v250z" />
<glyph unicode="5" d="M39 250v391h487v-168h269v352h-756v1047h1196v-469h-709v-94h502l270 -273v-762l-282 -284h-717z" />
<glyph unicode="6" d="M39 258v1329l285 285h706l258 -260v-357h-487v134h-271v-236h519l239 -244v-665l-252 -254h-729zM537 463h276v221h-276v-221z" />
<glyph unicode="7" horiz-adv-x="1241" d="M39 1386v486h1139v-395l-562 -1487h-557l516 1396h-536z" />
<glyph unicode="8" horiz-adv-x="1404" d="M39 252v610l127 125l-127 123v506l260 256h735l275 -270v-494l-123 -121l123 -123v-588l-293 -286h-711zM481 440h332v295h-332v-295zM481 1161h332v281h-332v-281z" />
<glyph unicode="9" d="M43 233v357h487v-133h271v235h-518l-240 244v666l252 253h729l268 -268v-1329l-284 -285h-707zM530 1161h277v221h-277v-221z" />
<glyph unicode=":" horiz-adv-x="512" d="M39 -10v428h387v-428h-387zM39 799v428h387v-428h-387z" />
<glyph unicode=";" horiz-adv-x="491" d="M39 -213v551h407v-358l-190 -193h-217zM39 799v428h403v-428h-403z" />
<glyph unicode="&#x3c;" horiz-adv-x="737" d="M102 225v1411l234 236h354v-420h-149v-1049h149v-413h-354z" />
<glyph unicode="&#x3e;" horiz-adv-x="663" d="M39 -10v413h149v1049h-149v420h354l234 -236v-1411l-234 -235h-354z" />
<glyph unicode="?" horiz-adv-x="1351" d="M39 1087v521l262 264h754l270 -273v-565l-434 -438v-66h-506v271l428 432v162h-272v-308h-502zM385 -10v481h477v-481h-477z" />
<glyph unicode="A" horiz-adv-x="1531" d="M39 0l61 289l136 618l129 592q16 74 41 221q18 106 28 152h617q10 0 77 -291l134 -594l137 -643l71 -344v-10h-493l-80 278h-274l-56 -170q-33 -98 -53 -108h-475v10zM717 760h74l-39 190z" />
<glyph unicode="B" horiz-adv-x="1400" d="M39 0v1872h1024l278 -277v-491l-127 -125l127 -127v-563l-288 -299h-1004h-10v10zM528 1180h301v233h-301v-233zM532 457h297v272h-297v-272z" />
<glyph unicode="C" d="M39 246v1366l264 260h735l256 -256v-494h-483v273h-276v-926h276v258h483v-481l-254 -256h-747z" />
<glyph unicode="D" horiz-adv-x="1388" d="M39 -10v1882h995l283 -283v-1317l-283 -282h-995zM532 440h285v981h-285v-981z" />
<glyph unicode="E" horiz-adv-x="1253" d="M39 -10v1882h1089v-486h-575v-200h575v-484h-577v-239h577v-473h-1089z" />
<glyph unicode="F" horiz-adv-x="1165" d="M39 -10v1882h1077v-486h-563v-200h563v-484h-565v-712h-512z" />
<glyph unicode="G" d="M39 246v1368l256 258h733l254 -256v-494h-471v273h-276v-926h276v113h-158v471h629v-807l-254 -256h-735z" />
<glyph unicode="H" horiz-adv-x="1449" d="M39 -10v1882h543v-600h247v600h529v-1882h-529v770h-247v-770h-543z" />
<glyph unicode="I" horiz-adv-x="600" d="M41 -10v1882h539v-1882h-539z" />
<glyph unicode="J" d="M39 248v479h471v-258h274v1403h498v-1624l-264 -258h-717z" />
<glyph unicode="K" horiz-adv-x="1490" d="M39 -10v1882h512v-451l219 451h612l-475 -883l555 -999h-604l-309 557v-557h-510z" />
<glyph unicode="L" horiz-adv-x="1130" d="M39 -10v1882h555v-1417h463v-465h-1018z" />
<glyph unicode="M" horiz-adv-x="1830" d="M39 -10v1882h663l187 -619l170 619h704v-1882h-518v628l-186 -628h-348l-179 626v-626h-493z" />
<glyph unicode="N" horiz-adv-x="1468" d="M39 -10v1882h551l303 -694v694h504v-1882h-578l-291 708v-708h-489z" />
<glyph unicode="O" horiz-adv-x="1363" d="M39 246v1368l258 258h741l256 -256v-1370l-256 -256h-743zM514 449h317v966h-317v-966z" />
<glyph unicode="P" horiz-adv-x="1357" d="M39 -10v1882h1001l287 -287v-829l-289 -291h-471v-475h-528zM545 934h260v457h-260v-457z" />
<glyph unicode="Q" horiz-adv-x="1437" d="M39 248v1364l264 260h752l264 -258v-1366l-264 -258h-133v-140h-549v140h-72zM535 469h276v926h-276v-926z" />
<glyph unicode="R" horiz-adv-x="1357" d="M39 -10v1882h1005l291 -285v-604l-125 -123l119 -115v-755h-532v608h-238v-608h-520zM539 1042h278v326h-278v-326z" />
<glyph unicode="S" horiz-adv-x="1380" d="M39 270v377h514v-168h256v217h-492l-278 283v610l280 283h723l279 -281v-354h-518v137h-254v-182h489l283 -287v-635l-279 -280h-725z" />
<glyph unicode="T" horiz-adv-x="1316" d="M39 1391v481h1214v-481h-354v-1401h-500v1401h-360z" />
<glyph unicode="U" horiz-adv-x="1353" d="M39 246v1626h496v-1403h249v1403h510v-1626l-254 -256h-747z" />
<glyph unicode="V" horiz-adv-x="1523" d="M37 1872h555l160 -846l145 846h559l-399 -1882h-629z" />
<glyph unicode="W" horiz-adv-x="2252" d="M37 1872h524l160 -770l170 770h446l158 -762l164 762h530l-374 -1882h-535l-168 676l-164 -676h-530z" />
<glyph unicode="X" horiz-adv-x="1581" d="M33 -10l430 1016l-379 866h575l127 -348l144 348h563l-401 -866l467 -1016l-592 -2l-179 489l-206 -487h-549z" />
<glyph unicode="Y" horiz-adv-x="1581" d="M35 1872h559l176 -402l164 402h608l-545 -1065v-817h-532v813z" />
<glyph unicode="Z" horiz-adv-x="1226" d="M39 -10v377l526 1017h-483v488h1077v-432l-518 -973h514v-477h-1116z" />
<glyph unicode="[" horiz-adv-x="737" d="M102 225v1411l234 236h354v-420h-149v-1049h149v-413h-354z" />
<glyph unicode="]" horiz-adv-x="663" d="M39 -10v413h149v1049h-149v420h354l234 -236v-1411l-234 -235h-354z" />
<glyph unicode="a" horiz-adv-x="1531" d="M39 0l61 289l136 618l129 592l81 373h605q10 0 77 -291l134 -594l137 -643l71 -344v-10h-493l-80 278h-274l-56 -170q-33 -98 -53 -108h-475v10zM717 760h74l-39 190z" />
<glyph unicode="b" horiz-adv-x="1400" d="M39 0v1872h1024l278 -277v-491l-127 -125l127 -127v-563l-288 -299h-1004h-10v10zM528 1180h301v233h-301v-233zM532 457h297v272h-297v-272z" />
<glyph unicode="c" d="M39 246v1366l264 260h735l256 -256v-494h-483v273h-276v-926h276v258h483v-481l-254 -256h-747z" />
<glyph unicode="d" horiz-adv-x="1388" d="M39 -10v1882h995l283 -283v-1317l-283 -282h-995zM532 440h285v981h-285v-981z" />
<glyph unicode="e" horiz-adv-x="1253" d="M39 -10v1882h1089v-486h-575v-200h575v-484h-577v-239h577v-473h-1089z" />
<glyph unicode="f" horiz-adv-x="1165" d="M39 -10v1882h1077v-486h-563v-200h563v-484h-565v-712h-512z" />
<glyph unicode="g" d="M39 246v1368l256 258h733l254 -256v-494h-471v273h-276v-926h276v113h-158v471h629v-807l-254 -256h-735z" />
<glyph unicode="h" horiz-adv-x="1449" d="M39 -10v1882h543v-600h247v600h529v-1882h-529v770h-247v-770h-543z" />
<glyph unicode="i" horiz-adv-x="600" d="M41 -10v1882h539v-1882h-539z" />
<glyph unicode="j" d="M39 248v479h471v-258h274v1403h498v-1624l-264 -258h-717z" />
<glyph unicode="k" horiz-adv-x="1490" d="M39 -10v1882h512v-451l219 451h612l-475 -883l555 -999h-604l-309 557v-557h-510z" />
<glyph unicode="l" horiz-adv-x="1130" d="M39 -10v1882h555v-1417h463v-465h-1018z" />
<glyph unicode="m" horiz-adv-x="1830" d="M39 -10v1882h663l187 -619l170 619h704v-1882h-518v628l-186 -628h-348l-179 626v-626h-493z" />
<glyph unicode="n" horiz-adv-x="1468" d="M39 -10v1882h551l303 -694v694h504v-1882h-578l-291 708v-708h-489z" />
<glyph unicode="o" horiz-adv-x="1363" d="M39 246v1368l258 258h741l256 -256v-1370l-256 -256h-743zM514 449h317v966h-317v-966z" />
<glyph unicode="p" horiz-adv-x="1357" d="M39 -10v1882h1001l287 -287v-829l-289 -291h-471v-475h-528zM545 934h260v457h-260v-457z" />
<glyph unicode="q" horiz-adv-x="1437" d="M39 248v1364l264 260h752l264 -258v-1366l-264 -258h-133v-140h-549v140h-72zM535 469h276v926h-276v-926z" />
<glyph unicode="r" horiz-adv-x="1357" d="M39 -10v1882h1005l291 -285v-604l-125 -123l119 -115v-755h-532v608h-238v-608h-520zM539 1042h278v326h-278v-326z" />
<glyph unicode="s" horiz-adv-x="1380" d="M39 270v377h514v-168h256v217h-492l-278 283v610l280 283h723l279 -281v-354h-518v137h-254v-182h489l283 -287v-635l-279 -280h-725z" />
<glyph unicode="t" horiz-adv-x="1316" d="M39 1391v481h1214v-481h-354v-1401h-500v1401h-360z" />
<glyph unicode="u" horiz-adv-x="1353" d="M39 246v1626h496v-1403h249v1403h510v-1626l-254 -256h-747z" />
<glyph unicode="v" horiz-adv-x="1523" d="M37 1872h555l160 -846l145 846h559l-399 -1882h-629z" />
<glyph unicode="w" horiz-adv-x="2252" d="M37 1872h524l160 -770l170 770h446l158 -762l164 762h530l-374 -1882h-535l-168 676l-164 -676h-530z" />
<glyph unicode="x" horiz-adv-x="1581" d="M33 -10l430 1016l-379 866h575l127 -348l144 348h563l-401 -866l467 -1016l-592 -2l-179 489l-206 -487h-549z" />
<glyph unicode="y" horiz-adv-x="1581" d="M35 1872h559l176 -402l164 402h608l-545 -1065v-817h-532v813z" />
<glyph unicode="z" horiz-adv-x="1226" d="M39 -10v377l526 1017h-483v488h1077v-432l-518 -973h514v-477h-1116z" />
<glyph unicode="{" horiz-adv-x="1269" />
<glyph unicode="&#xaa;" horiz-adv-x="1531" d="M39 0l61 289l136 618l129 592l81 373h605q10 0 77 -291l134 -594l137 -643l71 -344v-10h-493l-80 278h-274l-56 -170q-33 -98 -53 -108h-475v10zM717 760h74l-39 190z" />
<glyph unicode="&#xad;" horiz-adv-x="1046" d="M37 666v536h938v-536h-938z" />
<glyph unicode="&#xb2;" horiz-adv-x="1376" d="M39 -10v416l774 778v235h-319v-372h-455v561l264 264h744l231 -232v-718l-436 -441h444v-491h-1247z" />
<glyph unicode="&#xb3;" horiz-adv-x="1327" d="M39 250v391h487v-168h269v254h-299v479h299v215h-269v-164h-487v361l252 254h731l266 -268v-492l-125 -125l125 -127v-586l-282 -284h-709z" />
<glyph unicode="&#xb9;" horiz-adv-x="770" d="M39 1374v498h661v-1882h-503v1384h-158z" />
<glyph unicode="&#xba;" horiz-adv-x="1363" d="M39 246v1368l258 258h741l256 -256v-1370l-256 -256h-743zM514 449h317v966h-317v-966z" />
<glyph unicode="&#x152;" horiz-adv-x="2617" d="M1403 -10v1882h1089v-486h-575v-200h575v-484h-577v-239h577v-473h-1089zM39 246v1368l258 258h741l256 -256v-1370l-256 -256h-743zM514 449h317v966h-317v-966z" />
<glyph unicode="&#x153;" horiz-adv-x="2617" d="M1403 -10v1882h1089v-486h-575v-200h575v-484h-577v-239h577v-473h-1089zM39 246v1368l258 258h741l256 -256v-1370l-256 -256h-743zM514 449h317v966h-317v-966z" />
<glyph unicode="&#x2000;" horiz-adv-x="935" />
<glyph unicode="&#x2001;" horiz-adv-x="1871" />
<glyph unicode="&#x2002;" horiz-adv-x="935" />
<glyph unicode="&#x2003;" horiz-adv-x="1871" />
<glyph unicode="&#x2004;" horiz-adv-x="622" />
<glyph unicode="&#x2005;" horiz-adv-x="466" />
<glyph unicode="&#x2006;" horiz-adv-x="311" />
<glyph unicode="&#x2007;" horiz-adv-x="311" />
<glyph unicode="&#x2008;" horiz-adv-x="233" />
<glyph unicode="&#x2009;" horiz-adv-x="372" />
<glyph unicode="&#x200a;" horiz-adv-x="102" />
<glyph unicode="&#x2010;" horiz-adv-x="1046" d="M37 666v536h938v-536h-938z" />
<glyph unicode="&#x2011;" horiz-adv-x="1046" d="M37 666v536h938v-536h-938z" />
<glyph unicode="&#x2012;" horiz-adv-x="1046" d="M37 666v536h938v-536h-938z" />
<glyph unicode="&#x2013;" horiz-adv-x="1024" d="M37 666v536h915v-536h-915z" />
<glyph unicode="&#x2014;" horiz-adv-x="2048" d="M37 666v536h1939v-536h-1939z" />
<glyph unicode="&#x2019;" horiz-adv-x="491" d="M39 1309v551h407v-359l-190 -192h-217z" />
<glyph unicode="&#x2026;" horiz-adv-x="1437" d="M985 -10v428h387v-428h-387zM506 -10v428h387v-428h-387zM27 -10v428h387v-428h-387z" />
<glyph unicode="&#x202f;" horiz-adv-x="372" />
<glyph unicode="&#x2039;" horiz-adv-x="737" d="M102 225v1411l234 236h354v-420h-149v-1049h149v-413h-354z" />
<glyph unicode="&#x203a;" horiz-adv-x="663" d="M39 -10v413h149v1049h-149v420h354l234 -236v-1411l-234 -235h-354z" />
<glyph unicode="&#x205f;" horiz-adv-x="466" />
<glyph unicode="&#x2122;" horiz-adv-x="3147" d="M1356 -10v1882h663l187 -619l170 619h704v-1882h-518v628l-186 -628h-348l-179 626v-626h-493zM39 1391v481h1214v-481h-354v-1401h-500v1401h-360z" />
<glyph unicode="&#xe000;" horiz-adv-x="1870" d="M0 1870h1870v-1870h-1870v1870z" />
<glyph unicode="&#xfb01;" horiz-adv-x="1765" d="M1206 -10v1882h539v-1882h-539zM39 -10v1882h1077v-486h-563v-200h563v-484h-565v-712h-512z" />
<glyph unicode="&#xfb02;" horiz-adv-x="2295" d="M1204 -10v1882h555v-1417h463v-465h-1018zM39 -10v1882h1077v-486h-563v-200h563v-484h-565v-712h-512z" />
<glyph unicode="&#xfb03;" horiz-adv-x="2930" d="M2372 -10v1882h539v-1882h-539zM1204 -10v1882h1077v-486h-563v-200h563v-484h-565v-712h-512zM39 -10v1882h1077v-486h-563v-200h563v-484h-565v-712h-512z" />
<glyph unicode="&#xfb04;" horiz-adv-x="3461" d="M2370 -10v1882h555v-1417h463v-465h-1018zM1204 -10v1882h1077v-486h-563v-200h563v-484h-565v-712h-512zM39 -10v1882h1077v-486h-563v-200h563v-484h-565v-712h-512z" />
</font>
</defs>
</svg>
